# xmcd
#
# Track frame offsets: 
#        150
#        16565
#        31392
#        46102
#        60790
#        74580
#        87465
#        101510
#        117555
#        137862
#        153517
#        170705
#        184912
#        197507
#        212012
#        227402
#        241517
#        256092
#        274915
#        285762
#
# Disc length: 3966 seconds
#
# Revision: 2
# Processed by: cddbd v1.5.1PL2 Copyright (c) Steve Scherf et al.
# Submitted via: ExactAudioCopy v0.90b4
#
DISCID=080f7c14
DTITLE=Asleep At The Wheel - 20 Greatest Hits
DYEAR=2003
DGENRE=Country
TTITLE0=Take Me Back To Tulsa
TTITLE1=Fat Boy Rag
TTITLE2=The Letter That Johnny Walker Read
TTITLE3=Bump Bounce Boogie
TTITLE4=Nothing Takes The Place Of You
TTITLE5=Route 66
TTITLE6=Miles And Miles Of Texas
TTITLE7=The Trouble With Loving Today
TTITLE8=One O'Clock Jump
TTITLE9=Texas, Me And You
TTITLE10=Choo Choo Ch'Boogie (Live)
TTITLE11=House Of Blue Lights
TTITLE12=Keepin' Me Up Nights
TTITLE13=Corrine, Corrina (feat. Brooks and Dunn)
TTITLE14=Red Wing
TTITLE15=Blues For Dixie (feat. Lyle Lovett)
TTITLE16=Smoke! Smoke! Smoke! (That Cigarette)
TTITLE17=Hightower (feat. Bela Fleck and Johnny Gimble)
TTITLE18=You Ain't Woman Enough (To Take My Man)
TTITLE19=If You See My Baby
EXTD=
EXTT0=
EXTT1=
EXTT2=
EXTT3=
EXTT4=
EXTT5=
EXTT6=
EXTT7=
EXTT8=
EXTT9=
EXTT10=
EXTT11=
EXTT12=
EXTT13=
EXTT14=
EXTT15=
EXTT16=
EXTT17=
EXTT18=
EXTT19=
PLAYORDER=
